<svg width="53" height="49" viewBox="0 0 53 49" fill="none" xmlns="http://www.w3.org/2000/svg">
<path d="M26.9897 4C30.6898 4 34.5932 6.83802 38.516 13.1499C42.3156 19.2637 45.4196 27.5348 47.8393 35.8356C48.8565 39.3247 47.4626 41.9217 45.2865 43.2692C43.0428 44.6586 39.7373 44.8352 36.7201 42.5041C30.9714 38.0626 22.9491 38.0319 17.1229 42.2633C13.8464 44.6428 10.2605 44.3919 7.85671 42.8513C5.54293 41.3683 4.15141 38.616 5.33927 35.0036C8.0209 26.8487 11.3588 18.807 15.3005 12.8814C19.3659 6.76992 23.3231 4 26.9897 4Z" stroke="url(#paint0_linear_935_307)" stroke-width="8"/>
<defs>
<linearGradient id="paint0_linear_935_307" x1="-4.47199" y1="32.0654" x2="56.6483" y2="32.0654" gradientUnits="userSpaceOnUse">
<stop offset="0.257692" stop-color="#DB2777"/>
<stop offset="0.701923" stop-color="#A21CAF"/>
<stop offset="1" stop-color="#6366F1"/>
</linearGradient>
</defs>
</svg>
