<svg width="64" height="64" viewBox="0 0 64 64" fill="none" xmlns="http://www.w3.org/2000/svg">
<path d="M60.3888 0.0625L55.0651 57.7267L31.9996 63.9372L8.93371 57.7267L3.61108 0.0625H60.3888ZM49.6612 11.7876H31.9788H13.9832L14.8438 18.7511H31.9788H32.9413L31.9788 19.1517L15.4701 26.0275L16.0176 32.8341L31.9788 32.8859L40.5336 32.913L39.986 41.9888L31.9787 44.2431V44.236L31.9131 44.2542L24.1801 42.3021L23.7108 36.6684H23.6852H16.5125H16.4872L17.4261 47.5443L31.979 51.8479V51.8401L32.0052 51.8479L46.4801 47.6226L48.3577 26.0275H31.979H31.9386L31.979 26.01L48.9577 18.7511L49.6612 11.7876Z" fill="black"/>
</svg>
