<svg width="64" height="64" viewBox="0 0 64 64" fill="none" xmlns="http://www.w3.org/2000/svg">
<g clip-path="url(#clip0_919_303)">
<path fill-rule="evenodd" clip-rule="evenodd" d="M63.4289 25.6125H32.6762C32.6762 28.8107 32.6761 35.2065 32.6565 38.4047H50.4769C49.794 41.6029 47.3729 46.0812 43.9519 48.336C43.9519 48.336 43.9454 48.3548 43.9388 48.3516C39.3906 51.3547 33.3885 52.0362 28.9317 51.1407C21.946 49.7527 16.4175 44.6864 14.1728 38.2516C14.1859 38.242 14.1957 38.1533 14.2055 38.1469C12.8006 34.1555 12.8006 28.8107 14.2055 25.6125H14.2023C16.0124 19.7343 21.7075 14.3711 28.703 12.9032C34.3294 11.7102 40.678 13.0016 45.3472 17.3703C45.968 16.7627 53.9403 8.97859 54.5383 8.34534C38.5868 -6.10093 13.0456 -1.01914 3.48846 17.636H3.48519C3.48519 17.636 3.48848 17.6367 3.46888 17.6719C-1.25905 26.8348 -1.06301 37.6316 3.50154 46.3563C3.48847 46.3658 3.47868 46.3717 3.46888 46.3813C7.6054 54.4088 15.1335 60.5652 24.2038 62.9094C33.8393 65.436 46.1019 63.7091 54.3161 56.2797L54.326 56.2891C61.2855 50.0206 65.618 39.3424 63.4289 25.6125Z" fill="black"/>
</g>
<defs>
<clipPath id="clip0_919_303">
<rect width="64" height="64" fill="white"/>
</clipPath>
</defs>
</svg>
