<svg width="64" height="64" viewBox="0 0 64 64" fill="none" xmlns="http://www.w3.org/2000/svg">
<path d="M3.83911 0.0625L8.96461 57.5524L31.9654 63.9371L55.0297 57.5434L60.1609 0.0625H3.83911ZM49.4692 13.7056L49.1484 17.2801L49.0074 18.8652H48.984H32H31.9754H22.0255L22.6699 26.0854H31.9754H32H46.4654H48.3655L48.1934 27.9786L46.5365 46.5419L46.4304 47.7323L32 51.7316V51.7331L31.9676 51.7421L17.5242 47.7324L16.5364 36.6616H19.7986H23.6144L24.1164 42.2849L31.9689 44.4055L31.9754 44.4037V44.403L39.8399 42.2809L40.6576 33.1361H32H31.9754H16.2214L14.4885 13.7056L14.3196 11.8142H31.9755H32H49.638L49.4692 13.7056Z" fill="black"/>
</svg>
