<svg width="64" height="64" viewBox="0 0 64 64" fill="none" xmlns="http://www.w3.org/2000/svg">
<path d="M12 4H52C56.4 4 60 7.6 60 12V52C60 56.4 56.4 60 52 60H12C7.6 60 4 56.4 4 52V12C4 7.6 7.6 4 12 4Z" fill="black"/>
<path d="M55 32C55 28.8 51.2 26.2 45.6 24.4C47 18.6 46.4 14 43.8 12.6C43 12.2 42.4 12 41.6 12C39 12 35.8 13.8 32.6 17C29.2 13.8 26 12 23.4 12C22.6 12 21.8 12.2 21.2 12.6C18.6 14 18 18.6 19.4 24.4C13.8 26.2 10 28.8 10 32C10 35.2 13.8 37.8 19.4 39.6C18 45.4 18.4 50 21.2 51.6C21.8 52 22.6 52.2 23.4 52.2C26 52.2 29.2 50.4 32.4 47.2C35.6 50.4 39 52.2 41.4 52.2C42.2 52.2 43 52 43.6 51.6C46.2 50 46.8 45.4 45.4 39.6C51.2 37.8 55 35 55 32ZM41.6 14.2C42 14.2 42.4 14.2 42.6 14.4C43.8 15.2 44.4 17.8 44 21.2C43.8 22 43.8 23 43.6 23.8C41.8 23.4 39.8 23 37.8 22.8C36.6 21.2 35.4 19.6 34.2 18.4C37 15.6 39.8 14.2 41.6 14.2ZM38.6 35.6C38 36.8 37.2 37.8 36.6 39C35.2 39 34 39.2 32.6 39.2C31.2 39.2 29.8 39.2 28.6 39C27.8 38 27.2 36.8 26.6 35.6C26 34.4 25.4 33.2 24.8 32C25.4 30.8 26 29.6 26.6 28.4C27.2 27.2 28 26 28.8 25C30 25 31.4 24.8 32.8 24.8C34.2 24.8 35.4 24.8 36.8 25C37.6 26 38.2 27.2 39 28.4C39.6 29.6 40.2 30.8 40.8 32C40 33.2 39.2 34.4 38.6 35.6ZM41.6 34.6C42 35.8 42.4 36.8 42.8 38C41.6 38.2 40.4 38.4 39.2 38.6C39.6 38 40 37.4 40.4 36.6C40.8 36 41.2 35.2 41.6 34.6ZM32.4 44C31.6 43.2 30.8 42.2 30 41.2C30.8 41.2 31.6 41.2 32.4 41.2C33.2 41.2 34 41.2 34.8 41.2C34 42.2 33.2 43.2 32.4 44ZM25.6 38.6C24.4 38.4 23.2 38.2 22 38C22.4 36.8 22.8 35.8 23.2 34.6C23.6 35.2 24 36 24.4 36.6C24.8 37.4 25.2 38 25.6 38.6ZM23.4 29.4C23 28.2 22.6 27 22.2 26C23.4 25.8 24.6 25.6 25.8 25.4C25.4 26 25 26.8 24.6 27.4C24 28 23.6 28.8 23.4 29.4ZM32.4 20C33.2 20.8 34 21.8 34.8 22.8C34 22.8 33.2 22.8 32.4 22.8C31.6 22.8 30.8 22.8 30 22.8C30.8 21.8 31.6 20.8 32.4 20ZM40.4 27.4C40 26.6 39.6 26 39.2 25.4C40.4 25.6 41.6 25.8 42.8 26C42.4 27.2 42 28.4 41.6 29.4C41.2 28.8 40.8 28 40.4 27.4ZM21 21.2C20.6 17.8 21 15.2 22.4 14.4C22.6 14.2 23 14.2 23.4 14.2C25.2 14.2 28 15.6 31 18.6C29.8 20 28.6 21.4 27.4 23C25.4 23.2 23.4 23.6 21.6 24C21.2 23 21 22 21 21.2ZM17.4 36.4C14.2 35 12.2 33.4 12.2 31.8C12.2 30.4 14.2 28.6 17.4 27.2C18.2 26.8 19 26.6 20 26.4C20.6 28.2 21.2 30 22 31.8C21.2 33.6 20.4 35.4 20 37.2C19 37.2 18.2 36.8 17.4 36.4ZM22.4 49.6C21.2 48.8 20.6 46.2 21 42.8C21.2 42 21.2 41 21.6 40C23.4 40.4 25.2 40.8 27.2 41C28.4 42.6 29.6 44.2 31 45.6C28 48.4 25.2 50 23.4 50C23 49.8 22.6 49.8 22.4 49.6ZM44 42.8C44.4 46.2 44 48.8 42.6 49.6C42.4 49.8 42 49.8 41.6 49.8C39.8 49.8 37 48.4 34 45.4C35.2 44 36.6 42.6 37.8 40.8C39.8 40.6 41.8 40.4 43.4 39.8C43.6 41 43.8 42 44 42.8ZM47.6 36.4C46.8 36.8 46 37 45 37.4C44.4 35.6 43.8 33.8 43 32C43.8 30.2 44.6 28.2 45 26.6C46 26.8 46.8 27.2 47.6 27.4C50.8 28.8 52.8 30.4 52.8 32C52.8 33.4 50.8 35.2 47.6 36.4Z" fill="white"/>
<path d="M32.6 36.1998C35 36.1998 36.8 34.3998 36.8 31.9998C36.8 29.5998 35 27.7998 32.6 27.7998C30.2 27.7998 28.4 29.5998 28.4 31.9998C28.4 34.3998 30.2 36.1998 32.6 36.1998Z" fill="white"/>
</svg>
