<svg width="64" height="64" viewBox="0 0 64 64" fill="none" xmlns="http://www.w3.org/2000/svg">
<g clip-path="url(#clip0_919_309)">
<path d="M32.0003 10.6665C27.6228 10.6665 23.8593 11.848 20.9052 14.3801C17.9724 16.894 16.0537 20.5536 14.9894 25.1151C14.7571 26.1106 15.2637 27.1309 16.1971 27.5477C17.1305 27.9646 18.2284 27.6606 18.8146 26.8232C20.1656 24.8933 21.5144 23.7336 22.8105 23.1385C24.0656 22.5622 25.4186 22.4454 26.9683 22.8605C28.5322 23.2794 29.7428 24.5062 31.6434 26.5733L31.7048 26.6401C33.1376 28.1985 34.8853 30.0995 37.2757 31.5744C39.7562 33.1048 42.8429 34.1331 46.9338 34.1331C51.3109 34.1331 55.0746 32.9516 58.0288 30.4195C60.9613 27.9057 62.88 24.246 63.9445 19.6846C64.1767 18.6891 63.6702 17.6687 62.7367 17.2519C61.8035 16.8351 60.7053 17.139 60.1191 17.9764C58.7682 19.9064 57.4195 21.0659 56.1233 21.6611C54.8681 22.2374 53.5151 22.3542 51.9655 21.9391C50.4017 21.5202 49.1908 20.2934 47.2905 18.2263L47.229 18.1595C45.7963 16.6011 44.0487 14.7001 41.6581 13.2253C39.1777 11.6948 36.091 10.6665 32.0003 10.6665Z" fill="black"/>
<path d="M17.0669 29.8667C12.6895 29.8667 8.92599 31.0482 5.97188 33.5803C3.03902 36.0942 1.12039 39.7538 0.0560491 44.3154C-0.176238 45.3108 0.330309 46.331 1.26373 46.7478C2.19715 47.1647 3.29504 46.8609 3.88127 46.0233C5.23221 44.0935 6.58108 42.9338 7.87712 42.3387C9.13229 41.7624 10.4852 41.6456 12.0349 42.0607C13.5988 42.4796 14.8095 43.7065 16.7101 45.7737L16.7715 45.8403C18.2042 47.3985 19.952 49.2997 22.3424 50.7747C24.8228 52.3051 27.9095 53.3334 32.0003 53.3334C36.3777 53.3334 40.1411 52.152 43.0955 49.6197C46.028 47.1058 47.9467 43.4463 49.0112 38.8848C49.2433 37.8892 48.7369 36.8689 47.8033 36.452C46.8702 36.0352 45.7719 36.3391 45.1857 37.1766C43.8349 39.1066 42.4861 40.2661 41.19 40.8613C39.9349 41.4376 38.5819 41.5544 37.0322 41.1393C35.4683 40.7204 34.2577 39.4935 32.3571 37.4265L32.2956 37.3597C30.863 35.8013 29.1152 33.9003 26.7248 32.4254C24.2444 30.895 21.1577 29.8667 17.0669 29.8667Z" fill="black"/>
</g>
<defs>
<clipPath id="clip0_919_309">
<rect width="64" height="64" fill="white"/>
</clipPath>
</defs>
</svg>
